<?xml version="1.0" encoding="utf-8"?>
<!-- Generator: Adobe Illustrator 16.0.0, SVG Export Plug-In . SVG Version: 6.00 Build 0)  -->
<!DOCTYPE svg PUBLIC "-//W3C//DTD SVG 1.1//EN" "http://www.w3.org/Graphics/SVG/1.1/DTD/svg11.dtd">
<svg version="1.1" xmlns="http://www.w3.org/2000/svg" xmlns:xlink="http://www.w3.org/1999/xlink" x="0px" y="0px" width="300px"
	 height="300px" viewBox="0 0 300 300" enable-background="new 0 0 300 300" xml:space="preserve">
<g id="Layer_19">
	<path fill="#58595B" d="M200.994,149.947c0-3.554,3.576-23.05-0.673-24.929c-9.415-4.161-21.25,8.113-25.366,14.955
		C160.044,164.752,200.724,151.068,200.994,149.947C201.219,149.874,200.758,149.898,200.994,149.947L200.994,149.947z"/>
</g>
<g id="Layer_18">
	<path fill="#414042" d="M185.112,199.454c-17.524-16.979,15.244-47.688,26.825-57.511c21.765-18.46,48.142-19.157,74.757-16.753
		c-7.572,0.155-19.044-9.447-24.28-14.271c-8.412-7.75-50.959-3.393-58.174,7.477c-7.804,11.757-2.572,20.771-5.848,32.235
		c-14.518,1.956-34.931-3.32-33.773,19.874C165.085,179.82,179.037,199.406,185.112,199.454L185.112,199.454z"/>
</g>
<g id="Layer_17">
	<path fill="#58595B" d="M122.781,179.54c-2.62,9.163-13.651,0.817-20.172-1.799c-9.154-3.671-21.057-10.528-30.508-7.653
		c-11.292,3.436-47.394,2.565-56.292,1.198c27.214,4.182,30.104-32.487,61.826-34.069c20.793-1.037,28.016,2.658,33.933,14.656
		C112.036,152.82,130.895,179.958,122.781,179.54L122.781,179.54z"/>
</g>
<g id="Layer_16">
	<path fill="#414042" d="M148.924,202.633c-5.792,0-18.711-9.935-24.84-13.201c-7.826-4.171-20.609-11.937-31.333-15.568
		c2.039-16.894,31.573-22.538,38.475-5.919c3.596,8.661,3.995,15.023,10.025,22.911
		C142.874,192.978,148.997,201.373,148.924,202.633L148.924,202.633z"/>
</g>
<g id="Layer_15">
	<path fill="#6D6E71" d="M148.484,98.247c5.364-0.758,16.517,4.68,18.325,8.498c3.272,6.911,8.489,19.376,0.634,25.564
		c-5.003,3.941-10.543-6.584-11.688-10.024c-1.241-3.727-0.523-7.405-2.079-11.234C152.429,107.984,147.189,101.63,148.484,98.247z"
		/>
</g>
<g id="Layer_14">
	<path d="M114.656,90.156c9.875,6.39,23.464,1.85,33.633,7.764c3.699,2.151,6.842,6.184,7.844,10.411
		c0.607,2.56,1.382,5.375,1.577,8.003c0.195,2.639-2.006,3.667-3.673,5.236c-1.583,1.49-3.812,2.263-5.733,3.18
		c-3.382,1.613-2.743,0.874-2.743-2.577c-0.001-5.757-2.63-12.281-7.438-15.847c-2.073-1.537-4.244-2.938-6.283-4.521
		c-2.796-2.169-5.6-2.114-8.735-3.309C121.021,97.702,113.513,93.337,114.656,90.156z"/>
</g>
<g id="Layer_13">
	<path fill="#58595B" d="M115.844,90.5c4.314,7.421,13.341,7.176,20.511,9.735c10.613,3.786,13.836,13.635,10.208,23.562
		c-4.371,11.956-17.912-7.073-20.196-11.232c-2.375-4.324-3.497-8.303-7.101-11.929C116.745,98.1,114.43,94.309,115.844,90.5z"/>
</g>
<g id="Layer_12">
	<path d="M116.166,91.898c0.838,1.022,0.802,3.243,1.383,4.494c0.848,1.831,2.557,2.763,4.095,3.92
		c3.652,2.747,8.109,4.531,11.499,7.58c2.833,2.547,6.689,4.546,7.999,8.372c1.637,4.786-0.369,8.283-4.958,9.333
		c-3.824,0.875-7.037-2.565-10.387-4.019c-3.874-1.681-9.197-4.073-11.042-8.181c-1.335-2.97-4.191-9-2.25-12.202
		C114.289,98.25,115.44,94.845,116.166,91.898L116.166,91.898z"/>
</g>
<g id="Layer_11">
	<path fill="#58595B" d="M115.479,97.938c-7.445,18.17,27.934,12.419,12.552,34.822c-3.868,5.63-14.147-5.992-16.938-8.966
		C102.818,114.977,109.125,105.188,115.479,97.938z"/>
</g>
<g id="Layer_10">
	<path fill="#6D6E71" d="M112.676,89.642c4.837,8.893-7.241,17.85-8.828,26.429c-2.258,12.215,5.961,25.142,18.222,18.256
		c1.968-1.104-13.1-16.461-13.511-21.483c-0.549-6.698,16.548-20.255,2.957-25.077C111.691,88.516,112.078,89.141,112.676,89.642z"
		/>
</g>
<g id="Layer_9">
	<path fill="#414042" d="M142.5,126c-4.399-1.848-3.271-6.36-10.33-4.147c-4.474,1.403-5.871,8.099-4.149,11.947
		c5.212,11.648,10.184-8.368,13.812-8.466L142.5,126z"/>
	<path fill="#414042" d="M147,127c-1.638,0.122,2.404-5.361,2.958-5.708c4.583-2.865,8.8-1.073,10.494,3.824
		c4.27,12.346-14.462,10.257-13.427,1.409c0.211-0.037,0.423-0.036,0.641-0.025L147,127z"/>
</g>
<g id="Layer_8">
	<path fill="#6D6E71" d="M133.924,135.833c-2.341-13.142,23.634-16.125,20.289,0.316c-1.916,9.414-19.928,7.184-21.109-2.112
		c0.158-0.077,0.32-0.146,0.487-0.204L133.924,135.833z"/>
</g>
<g id="Layer_7">
	<g>
		<path d="M150.59,137.974c-2.638,1.979-11.468,1.432-15.68-2.801c-4.163-4.184-18.15-2.727-22.671-0.399
			c-8.776,4.521-10.822,13.945-6.528,21.537c3.289,5.814,13.939-0.038,20.117,10.422c9.422,15.956,14.137,42.486,36.41,46.554
			c14.576,2.662,48.156,7.313,43.512-19.748c-10.112,23.699-50.284-18.782-37.493-33.172c7.381-8.303,13.45-18.906,4.113-29.074
			C167.098,125.551,154.071,130.75,150.59,137.974C150.734,137.674,150.279,138.059,150.59,137.974z"/>
		<path d="M236.625,230.587c-0.916-1.003-6.191-15.713-7.166-18.67c-2.161-6.559-3.76-13.117-6.24-19.566
			c-1.854-4.82-3.057-9.932-5.246-14.624c-0.981-3.38-2.304-3.37-3.969,0.03c-2.491,6.129-6.043,14.35-8.171,20.368
			c0.462-1.306-0.729-3.707,0.167-4.5l-0.625,0.75c1.718-5.337,3.875-10,6.565-14.845c2.584-4.653,4.576-9.396,10.685-9.405
			c6.408-0.009,14.679,9.47,7.473,15.344c-2.016,1.643-5.574,3.148-4.47,6.125"/>
	</g>
</g>
<g id="Layer_4">
	<path fill="#58595B" d="M149.14,180.05c3.526,0.725-14.512-15.955-12.283-6.174C138.549,181.292,145.52,181.241,149.14,180.05
		C147.821,179.779,147.487,180.594,149.14,180.05z"/>
</g>
<g id="Layer_4_copy">
	<path fill="#58595B" d="M155.361,178.708c-0.181,3.596,13.57-16.764,4.24-13.077C152.528,168.429,153.635,175.311,155.361,178.708
		C155.429,177.363,154.573,177.156,155.361,178.708z"/>
</g>
<g id="Layer_6">
	<path fill="#58595B" d="M150.667,179.209c-2.008,3.578-5.312-2.646-5.938-4.273c-1.561-4.062,0.207-8.809,2.773-12.083
		C148.941,161.016,161.549,180.386,150.667,179.209L150.667,179.209z"/>
</g>
<g id="Layer_3">
	<path fill="#414042" d="M151.596,177.25c3.164-2.298,10.003,4.068,4.729,7.646c-5.113,3.47-3.175,7.037,0.14,11.055
		c10.988,13.315,28.894,20.966,45.267,11.169c-10.446,15.477-38.46-0.298-47.292-10.622
		C146.911,187.697,139.857,178.523,151.596,177.25z"/>
</g>
</svg>
