<?xml version="1.0" encoding="utf-8"?>
<!-- Generator: Adobe Illustrator 16.0.0, SVG Export Plug-In . SVG Version: 6.00 Build 0)  -->
<!DOCTYPE svg PUBLIC "-//W3C//DTD SVG 1.1//EN" "http://www.w3.org/Graphics/SVG/1.1/DTD/svg11.dtd">
<svg version="1.1" xmlns="http://www.w3.org/2000/svg" xmlns:xlink="http://www.w3.org/1999/xlink" x="0px" y="0px" width="300px"
	 height="300px" viewBox="0 0 300 300" enable-background="new 0 0 300 300" xml:space="preserve">
<g id="Layer_34">
	<path d="M96.833,249.5c-0.133-0.031-0.011-0.351-0.305-0.116c-0.271,2.946,0.342,7.549,2.013,10.083
		c1.127,1.71,4.032,5.283,6.462,4.537c4.125-1.267-0.667-13.638-1.712-16.18c-0.827-2.013-3.727-7.795-6.628-6.837
		c-2.776,0.917-0.612,8.554,0.504,9.846"/>
</g>
<g id="Layer_33">
	<path fill="#58595B" d="M90.833,244.833c-2.102,0.601-2.44,6.871-2.333,9c0.153,3.063,3.004,4.602,5.625,2.626
		C98.143,253.432,97.988,245.516,98,241c0.005-1.719-0.613-12.009-4.008-9.341c-1.409,1.106-1.783,5.318-2.158,7.016
		c-0.378,1.71-0.527,3.375-1.167,4.991"/>
</g>
<g id="Layer_32">
	<path fill="#414042" d="M86.833,233c-1.559,3.088-5.253,12.887-0.004,14.661c5.26,1.777,7.347-11.727,7.67-15.078
		c0.297-3.091,0.282-6.182-0.453-9.213c-0.349-1.438-0.758-3.646-2.672-2.682c-1.853,0.933-5.273,6.169-5.375,7.812"/>
</g>
<g id="Layer_31">
	<path fill="#58595B" d="M85.333,214.166c-2.114,1.604-3.272,5.965-3.671,8.509c-0.503,3.207-1.308,7.289-0.833,10.571
		c0.577,3.981,5.047,2.425,6.966,0.208c2.008-2.319,3.674-6.09,4.209-9.112c0.66-3.732,0.995-7.685,0.995-11.506
		c0-1.825,0.326-4.244-1.026-5.666c-3.887-4.088-10.772,3.893-10.474,7.663"/>
</g>
<g id="Layer_30">
	<path fill="#414042" d="M82.333,202.833c-1.594,1.712-1.938,5.572-2.699,7.796c-0.617,1.801-3,5.892-1.597,7.838
		c1.574,2.184,5.2,0.13,6.63-0.926c2.05-1.512,4.379-2.971,5.203-5.505c1.063-3.272,1.257-7.891,1.297-11.375
		c0.016-1.419,0.347-2.989-0.871-3.953c-1.963-1.554-7.554,0.905-7.296,3.292"/>
</g>
<g id="Layer_29">
	<path fill="#58595B" d="M83,188.5c-0.287,2.486-3.527,5.028-4.708,7.333c-1.13,2.206-2.868,7.18-1.967,9.671
		c2.154,5.956,12.331-4.091,13.8-6.745c1.158-2.092,1.42-4.483,2.088-6.718c0.703-2.355,1.396-4.333,1.12-6.879
		c-0.257-2.378-1.727-4.521-4.458-3.972c-1.458,0.294-2.887,1.626-3.708,2.806c-0.824,1.185-1.411,4.015-2.809,4.461
		c-0.045-0.206-0.053-0.414-0.025-0.624"/>
</g>
<g id="Layer_28">
	<path fill="#414042" d="M85.5,172.833c0.055,1.202-1.434,2.126-1.962,3.167c-0.744,1.468-1.225,3.049-2.075,4.5
		c-1.244,2.126-3.472,5.103-3.129,7.666c0.438,3.278,4.413,2.65,6.675,1.533c2.965-1.464,4.522-2.765,5.954-5.699
		c1.701-3.486,2.704-6.485,2.704-10.334c0-1.799,0.443-4.086-1.705-4.67c-1.792-0.487-7.755,2.86-5.795,4.337"/>
</g>
<g id="Layer_27">
	<path fill="#58595B" d="M91.333,157.666c-0.89,2.237-4.671,4.08-6.454,5.709c-2.168,1.98-3.896,4.546-3.88,7.583
		c0.023,4.485,2.114,5.471,5.667,3.872c3.326-1.497,5.517-3.075,7.541-6.325c1.525-2.448,3.01-5.398,3.917-8.172
		c0.646-1.977,0.688-3.587-1.785-3.833c-1.578-0.157-2.153,0.298-3.471,0.926c-0.682,0.325-2.584,0.843-2.37,1.074"/>
</g>
<g id="Layer_26">
	<path fill="#414042" d="M96.833,145.166c0.122,0.143,0.173,0.302,0.154,0.479c-5.048,1.447-9.681,5.654-8.487,11.521
		c0.565,2.776,4.433,2.967,6.833,2.499c2.935-0.572,3.855-3.541,4.875-6.04c0.939-2.302,2.544-5.547,2.609-7.93
		c-1.878-0.39-3.753-0.516-5.65-0.529"/>
</g>
<g id="Layer_25">
	<path fill="#414042" d="M103,236.5c0.205,1.336,1.627,2.416,2.167,3.657c0.516,1.188,0.735,2.492,1.167,3.667
		c0.698,1.901,3.131,6.374,0.337,7.18c-2.628,0.758-4.497-1.854-5.629-3.713c-1.293-2.123-3.283-4.267-3.884-6.624
		c-0.55-2.157-0.75-4.668-0.632-6.976c2.519-0.392,4.1,2.316,5.808,3.642"/>
</g>
<g id="Layer_24">
	<path fill="#58595B" d="M98.667,222.833c2.566,0.404,3.457,4.273,4.333,6.333c0.833,1.956,3.154,6.051,2.007,8.343
		c-0.843,1.685-6.032-1.285-7.179-2.505c-1.258-1.338-1.476-3.576-1.829-5.338c-0.322-1.604-1.106-3.459-1.166-5.037
		c-0.083-2.191,2.519-3.336,4.137-1.604c0.089-0.012,0.003-0.172,0.029-0.358"/>
</g>
<g id="Layer_23">
	<path fill="none" d="M18.333,183.833c-0.333,0.389-0.667,0.778-1,1.167"/>
	<path fill="#414042" d="M95.333,212c-0.446,0.617,0.508-0.411,0.833-0.5c0.491-0.134,1.282-0.34,1.837-0.171
		c1.004,0.306,1.834,1.647,2.129,2.672c0.577,2.001,2.014,6.326,1.537,8.336c-0.628,2.646-3.992,3.306-5.046,0.793
		c-0.728-1.735-2.137-5.703-1.791-7.297"/>
</g>
<g id="Layer_22">
	<path fill="#58595B" d="M94.667,209.333c0.147,2.104,2.62,5.369,5.121,3.967c1.771-0.994,2.186-5.689,1.842-7.422
		c-0.493-2.484-2.275-7.068-4.296-8.72c-4.191-3.426-3.612,4.515-3.503,6.879c0.093,2.026,1.282,4.252,1.17,6.13"/>
</g>
<g id="Layer_21">
	<path fill="#414042" d="M95.167,180.5c-0.05,0.221-0.256,0.201-0.145,0.467c2.012,1.198,4.527,2.178,5.853,4.164
		c1.383,2.07,2.02,4.608,2.496,6.999c0.555,2.786,0.184,4.729-2.159,6.582c-2.257,1.784-5.74,1.68-6.512-1.388
		c-0.684-2.719-0.01-5.72-0.033-8.491c-0.027-3.234-0.311-6.085,0.667-9"/>
</g>
<g id="Layer_20">
	<path fill="#58595B" d="M95.333,180.333c-0.181,0.103-0.279-0.129-0.358,0.155c1.374,2.445,2.999,4.895,5.987,5.012
		c3.046,0.119,4.436-2.838,5.032-5.329c1.281-5.346-0.461-11.84-2.866-16.662c-0.771-1.548-1.177-4.779-2.629-5.691
		c-3.496,1.91-4.108,7.801-4.463,11.387c-0.199,2.013-1.877,10.313-0.204,11.463"/>
</g>
<g id="Layer_19">
	<path fill="#414042" d="M101,156.833c0.318,0.938-0.235,2.516-0.167,3.676c0.073,1.233,0.418,2.267,0.667,3.491
		c0.505,2.491,1.031,5.191,2.375,7.504c0.878,1.512,4.056,3.268,5.588,1.829c1.226-1.152,1.683-5.015,1.738-6.653
		c4.366,6.027,6.735-8.349,6.138-11.185c-0.697-3.308-1.354-6.143-1.042-9.662c0.217-2.447,0.37-4.81,0.37-7.344
		c0-1.797,0.661-3.481-1.333-3.656c-2.257-0.198-3.862,2.465-5.167,3.991c-1.711,2.002-2.516,4.207-3.792,6.509
		c-1.089,1.966-2.475,3.628-3.407,5.692c-0.443,0.981-1.951,5.363-1.634,6.142"/>
</g>
<g id="Layer_18">
	<path fill="#58595B" d="M116.667,135.5c-1.816,4.004-2.5,10.577-2.5,15.5c0,3.219-0.594,5.825,3.167,6.333
		c2.933,0.396,4.826-2.322,5.708-4.819c0.492,1.053,0.769,2.5,2.288,2.49c1.213-0.008,2.877-1.508,3.828-2.208
		c2.62-1.929,4.296-4.501,5.004-7.629c0.881-3.893,0.198-8.21,0.005-12.167c-0.142-2.919,0.335-5.861,0.333-8.667
		c-0.003-3.722-2.158-1.232-3.496,0.093c-1.507,1.493-4.298,2.911-6.133,3.953c-1.653,0.938-3.364,1.844-4.916,2.913
		c-0.765,0.527-4.469,3.347-3.122,3.708"/>
</g>
<g id="Layer_17">
	<path fill="#414042" d="M134.205,121.831c-1.499,5.774-3.425,10.806-3.304,17.333c0.178,9.637,6.4,10.216,11.64,3.396
		c2.165,4.745,8.54,0.271,10.074-2.527c2.517-4.589,1.709-10.52,2.923-15.477c1.805-7.368,10.78-11.339,12.111-18.527
		C154.727,103.409,143.272,115.839,134.205,121.831L134.205,121.831z"/>
</g>
<g id="Layer_16">
	<path fill="#58595B" d="M166.457,135.872c0.883,3.035-25.167,11.195-14.947-10.692c6.357-13.614,23.875-30.526,40.765-16.472
		C179.046,116.549,161.423,115.344,166.457,135.872L166.457,135.872z"/>
</g>
<g id="Layer_5">
	<path fill="#414042" d="M184.5,137.417c1.367,5.64-19.545,5.355-21.658-5.084c-2.905-14.362,16.538-24.078,27.792-23.62
		c11.071,0.45,24.337,16.479,14.333,26.945C203.296,137.406,189.078,134.961,184.5,137.417z"/>
</g>
<g id="Layer_7" opacity="0.7">
	<path fill="#414042" d="M208.505,113.747c0.745,0.128,3.364-8.616,3.842-9.844c0.812-2.086,2.498-3.469,3.699-5.323
		c0.907-1.399,1.65-2.98,2.791-4.207c5.018-5.394,14.789-6.067,21.249-3.622c2.638,0.999,5.988,2.357,7.293,4.992
		c1.619,3.268,0.352,7.645-1.649,10.349c2.623-0.065,6.815-0.908,8.154,1.822c1.165,2.377,0.965,5.517-1.008,7.374
		c-2.32,2.184-4.557,3.526-7.714,3.626c-3.106,0.099-6.844,0.468-9.787,1.375c-4.263,1.312-7.643,2.651-11.195,5.33
		c-1.476,1.113-2.997,2.049-4.216,3.425c-1.291,1.459-2.247,3.202-3.792,4.541c-3.85,3.335-5.326-2.086-5.334-5.309
		c-0.01-4.347,0.424-9.065-0.824-13.204c-0.19-0.632-0.434-1.289-1.029-1.492c-0.245,0.046,0.164-0.095,0.187-0.166"/>
</g>
<g id="Layer_6">
	<path fill="#58595B" d="M215.5,133.833c0.531-1.523,0.483-3.016,1.501-4.5c1.031-1.505,2.263-3.118,3.666-4.333
		c3.545-3.069,8.291-6.052,12.712-7.67c3.749-1.373,8.219-1.647,12.199-0.496c3.538,1.022,7.839,2.185,10.085,5.312
		c2.022,2.816,3.051,7.864,2.504,11.354c-0.429,2.734-3.079,4.003-5.357,4.833c1.13,0.616,2.731,0.747,3.482,2.042
		c0.715,1.234,0.388,2.981-0.242,4.203c-1.438,2.792-4.105,4.791-7.2,5.25c-2.409,0.358-5.438,0.422-7.771-0.325
		c-1.79-0.574-3.38-1.707-5.208-2.211c-3.549-0.979-7.39-1.128-11.194-1.459c-3.201-0.278-6.803-0.52-9.983-0.359
		c-0.215-4.259,0.537-8.248,0.654-12.453c0.302-0.077,0.539,0.009,0.82,0.145"/>
</g>
<g id="Layer_9" opacity="0.7">
	<path fill="#414042" d="M178.333,100.833c-1.716-0.687-2.894-4.611-3.211-6.334c-0.536-2.908,0.321-7.034,1.587-9.662
		c1.453-3.017,4.608-5.103,7.958-5.004c2.836,0.083,3.778,1.556,5.959,2.807c1.461-2.033,3.44-4.22,5.703-5.433
		c2.022-1.083,7.146-1.834,8.458,0.663c0.727,1.385,0.366,4.209,0.38,5.788c0.021,2.399-0.254,3.761-1.334,5.878
		c-0.966,1.894-2.183,3.613-2.999,5.588c-0.981,2.374-1.571,4.712-3.321,6.696c-2.596,2.941-7.757,1.519-11.179,1.012
		c-1.917-0.284-3.228-1.223-5.001-2.045c-1.411-0.655-3.258-0.87-4.49-1.584c0.227-0.059,0.419-0.031,0.657-0.037"/>
</g>
<g id="Layer_8">
	<path fill="#58595B" d="M196.5,103.667c0.45-1.201-0.133-2.315-0.296-3.5c-0.209-1.513,0.257-2.84,0.467-4.305
		c0.495-3.453,1.116-6.362,3.196-9.23c2.704-3.73,3.864-5.147,8.429-5.298c2.304-0.076,4.412,0.423,4.908,2.779
		c2.748-2.618,5.722-4.351,9.796-3.946c3.184,0.317,5.168,2.102,5.167,5.333c-0.001,4.219-1.934,6.344-4.995,9
		c-3.251,2.82-5.163,6.207-7.676,9.834c-2.131,3.074-4.251,13.255-9.896,10.344c-2.668-1.375-3.51-5.372-5.31-7.645
		c-1.189-1.503-3.298-2.483-4.3-3.999c0.325-0.048,0.681-0.08,1.009-0.034"/>
</g>
<g id="Layer_15" opacity="0.7">
	<path fill="#414042" d="M154.667,95.667c-0.245,0,0.779,0,0.36,0c-4.169,0-7.96-1.023-12.198-0.833
		c-2.497,0.112-8.894,3.697-4.555,6.009c-2.603-0.045-7.497,0.463-8.107,3.491c-0.431,2.138,1.257,4.766,2.82,6.045
		c1.41,1.154,2.836,0.831,4.517,0.955c1.37,0.102,2.829,0.875,4.159,0.633c2.679-0.486,5.968-1.935,8.337-3.27
		c2.681-1.511,4.891-3.516,8-3.843c1.186-0.125,2.646-1.212,3.663-1.887c1.678-1.113,0.339-1.789-1.001-2.801
		c-1.091-0.824-7.038-4.866-6.662-5.833"/>
</g>
<g id="Layer_10">
	<path fill="#58595B" d="M162.667,104.833c-4.725-1.696-8.839-4.536-9.676-9.658c-0.822-5.037,7.484-7.619,11.308-5.858
		c-1.23-6.996,6.11-7.891,10.701-4.317c2.638,2.054,2.553,4.792,3.204,7.829c0.659,3.069,2.097,5.978-1.071,8.329
		c-2.914,2.162-6.807,0.103-9.97,1.305c-1.729,0.657-3.849,1.569-5.446,2.391c0.257-0.065,0.396-0.247,0.616-0.354"/>
</g>
<g id="Layer_13" opacity="0.7">
	<path fill="#414042" d="M126.833,121.167c0.258-0.019,0.397,0.233,0.482-0.126c-2.755-1.639-7.163-1.62-10.324-1.211
		c-1.441,0.187-2.867,0.798-4.325,0.995c-2.519,0.341-3.3,1.136-5.212,2.976c-2.213,2.129-4.003,2.786-3.788,6.2
		c0.177,2.802,1.85,5.189,4.667,5.333c4.642,0.237,5.927-2.466,9.175-5.134c1.893-1.556,3.346-3.034,5.062-4.77
		c0.731-0.739,3.609-4.713,4.596-4.096"/>
</g>
<g id="Layer_14">
	<path fill="#58595B" d="M141.667,112.333c0.068,0.205,0.016,0.313-0.154,0.324c-3.013-2.143-5.223-1.975-8.679-2.361
		c-2.838-0.317-6.066-1.03-8.825,0.038c-2.45,0.948-6.904,2.081-8.175,4.509c-1.619,3.092-0.064,6.099,3.166,7.036
		c4.02,1.166,8.913,0.592,12.5-1.67c3.394-2.141,6.083-6.526,9.833-7.375"/>
</g>
<g id="Layer_12">
	<path fill="#58595B" d="M113,134.333c-0.848-1.773-5.923-0.751-7.528-0.37c-2.74,0.651-5.724,0.679-8.147,2.375
		c-2.304,1.612-5.301,4.367-3.662,7.324c0.759,1.371,1.996,2.573,3.375,2.838c1.273,0.245,3.027,0.148,4.296,0.167
		c3.734,0.055,4.406-3.41,6.333-6c1.359-1.825,5.667-5.366,5.333-7.667"/>
</g>
<g id="Layer_2">
	<path d="M98.667,250.583c3.072-0.976-14.887-87.28,14.667-110.917c18.998-15.193,40.208-33.739,64.796-33.224
		c36.92,0.773,15.306,31.628,32.466,48.535c11.932-10.34,3.509-41.497-7.193-48.977c-21.123-14.765-45.373-3.123-65.446,7.724
		C83.646,143.077,81.505,199.102,98.667,250.583z"/>
</g>
<g id="Layer_4">
	<path fill="#414042" d="M207.499,163.663c0.353,5.984,2.831,12.376,6.533,17.163c2.279,2.947,4.621,5.327,8.458,5.508
		c3.425,0.161,6.239-0.104,9.355-1.55c5.28-2.451,10.673-5.531,10.987-11.95c0.065-1.346,0.142-3.049-0.604-4.18
		c2.638-0.404,6.496-3.461,7.979-5.653c1.856-2.745,1.581-5.958,0.249-8.867c-3.978-8.686-12.604-12.86-21.791-12.3
		c-3.432,0.209-7.432,1.088-10.833,1.833c-6.252,1.37-4.027,2.338-6,6.667C210.499,153.261,206.499,146.667,207.499,163.663z"/>
	<g id="Layer_3">
		<path fill="#58595B" d="M182.083,146.417c3.938-2.986-3.095-18.301,14.084-13.709c15.947,4.264,19.085,20.194,11.537,31.838
			C187.488,195.739,158.402,154.219,182.083,146.417z"/>
	</g>
</g>
</svg>
