<?xml version="1.0" encoding="utf-8"?>
<!-- Generator: Adobe Illustrator 16.0.0, SVG Export Plug-In . SVG Version: 6.00 Build 0)  -->
<!DOCTYPE svg PUBLIC "-//W3C//DTD SVG 1.1//EN" "http://www.w3.org/Graphics/SVG/1.1/DTD/svg11.dtd">
<svg version="1.1" xmlns="http://www.w3.org/2000/svg" xmlns:xlink="http://www.w3.org/1999/xlink" x="0px" y="0px"
	 width="66.923px" height="66.92px" viewBox="0 0 66.923 66.92" enable-background="new 0 0 66.923 66.92" xml:space="preserve">
<g id="Layer_6">
	<path fill="#808285" d="M22.619,48.186c-5.241,0.208-6.984,3.282-12.303,2.274C6.911,49.815,3.47,49.071,0,48.759V66.92h14.289
		C19.911,61.435,34.635,47.709,22.619,48.186z"/>
	<path fill="#808285" d="M22.619,48.186c0.979-0.039,1.382-0.055,1.448-0.058C23.852,48.137,20.122,48.285,22.619,48.186z"/>
	<path fill="#808285" d="M24.067,48.128C24.079,48.128,24.08,48.128,24.067,48.128L24.067,48.128z"/>
</g>
<g id="Layer_5">
	<path fill="#6D6E71" d="M44.881,12.758c0.004,2.035,16.71,1.037,18.562,1.431c1.125,0.239,2.29,0.887,3.479,1.754v-5.887
		C59.287,8.293,44.874,9.026,44.881,12.758z"/>
	<path fill="#6D6E71" d="M42.743,26.065c-0.594,3.697,14.067-1.935,16.251-1.993c6.037-0.161-0.258,9.72-3.881,10.378
		c-7.106-4.104-9.898-2.961-11.375,2.782c-0.84,0.813-18.861,5.523-13.463,10.49c0.956,0.88,8.943,0.294,10.743-0.526
		c7.038-3.219,17.406-1.811,25.904-3.52V22.665C56.796,19.792,44.088,17.692,42.743,26.065z"/>
	<path fill="#6D6E71" d="M46.744,57.122c-4.991-1.664-12.923-5.794-18.315-4.508c-9.106,2.173-13.631,8.111-18.422,14.306h11.155
		c6.343-2.985,18.06-7.747,24.511-5.4c7.938,2.429,13.788,4.262,21.25,0.717v-5.709C59.498,58.284,52.031,58.74,46.744,57.122z"/>
</g>
<g id="Layer_2">
	<path d="M64.728,64.883c-0.373-0.147-0.764-0.302-1.144-0.452C63.922,64.564,64.295,64.711,64.728,64.883z"/>
	<path d="M63.195,64.277c-0.136-0.054-0.268-0.106-0.396-0.156C62.926,64.17,63.051,64.219,63.195,64.277z"/>
	<path d="M65.479,65.18c-0.265-0.104-0.517-0.205-0.751-0.297C64.991,64.987,65.245,65.087,65.479,65.18z"/>
	<path d="M66.63,65.635c-0.02-0.008-0.048-0.019-0.085-0.034C66.575,65.613,66.6,65.624,66.63,65.635z"/>
	<path d="M65.925,65.356c-0.137-0.054-0.285-0.113-0.446-0.177C65.62,65.236,65.774,65.296,65.925,65.356z"/>
	<path d="M66.545,65.602c-0.218-0.086-0.419-0.166-0.62-0.245C66.204,65.467,66.42,65.552,66.545,65.602z"/>
	<path d="M63.584,64.431c-0.132-0.052-0.271-0.107-0.389-0.154C63.323,64.327,63.452,64.378,63.584,64.431z"/>
	<path d="M66.652,65.644L66.652,65.644C66.668,65.65,66.673,65.652,66.652,65.644z"/>
	<polygon points="66.652,65.644 66.652,65.644 66.652,65.644 	"/>
	<path d="M66.923,65.766c-0.084-0.041-0.167-0.081-0.271-0.122l0,0c-17.373-6.872-31.852-7.923-46.68,1.276h46.951V65.766z"/>
	<path d="M66.63,65.635c0.009,0.003,0.017,0.007,0.022,0.009l0,0C66.645,65.641,66.638,65.638,66.63,65.635z"/>
	<path d="M62.387,63.957c-0.127-0.05-0.247-0.098-0.354-0.141C62.136,63.857,62.254,63.904,62.387,63.957z"/>
	<path d="M62.8,64.121c-0.152-0.061-0.288-0.114-0.413-0.164C62.517,64.008,62.655,64.063,62.8,64.121z"/>
	<path d="M62.032,63.816C61.098,63.447,61.317,63.534,62.032,63.816L62.032,63.816z"/>
	<path d="M29.542,49.886c-0.011,0.002-0.026,0.004-0.047,0.008c0,0,0.001,0,0.001,0C29.519,49.89,29.53,49.888,29.542,49.886z"/>
	<path d="M29.542,49.886C29.566,49.882,29.568,49.882,29.542,49.886L29.542,49.886z"/>
	<path d="M25.472,54.409c0.154-0.023,0.386-0.083,0.733-0.197C25.97,54.289,25.715,54.342,25.472,54.409z"/>
	<path d="M25.472,54.409c-1.849,0.284,9.054-5.375,4.024-4.515c-2.203,0.376-3.144,0.536-3.371,0.575c-0.073,0.013-0.079,0.014,0,0
		c0.415-0.071,2.924-0.499,3.37-0.575C19.466,51.605,9.702,48.543,0,46.891v6.212c3.65,0.759,7.332,1.573,11.209,1.888
		C15.558,55.344,21.116,55.612,25.472,54.409z"/>
	<path d="M26.125,50.469C26.046,50.483,26.052,50.482,26.125,50.469L26.125,50.469z"/>
	<path d="M29.41,40.021c-0.175,0.061-0.403,0.139-0.624,0.215c0,0,0.001,0,0.001,0C29.076,40.136,29.265,40.07,29.41,40.021z"/>
	<path d="M29.645,39.939C29.704,39.919,29.697,39.921,29.645,39.939L29.645,39.939z"/>
	<path d="M29.41,40.021c0.109-0.038,0.187-0.064,0.235-0.081C29.604,39.954,29.522,39.981,29.41,40.021z"/>
	<path d="M28.497,40.336c-0.139,0.047-0.249,0.085-0.311,0.107C28.258,40.418,28.364,40.382,28.497,40.336z"/>
	<path d="M28.788,40.235c-0.12,0.042-0.205,0.071-0.291,0.101c-0.133,0.046-0.239,0.083-0.311,0.107c-0.125,0.043-0.101,0.035,0,0
		c0.062-0.021,0.172-0.06,0.311-0.107c0.09-0.031,0.188-0.065,0.289-0.1c-12.367,4.271-21.014-2.775-14.281-16.673
		c0.992-2.048,10.614-7.813,10.081-9.727C24.29,12.77-10.202,27.184,6.734,42.267c4.409,3.926,10.949,5.379,16.634,6.102
		C33.658,49.676,33.97,38.445,28.788,40.235z"/>
	<path d="M40.831,18.114c-4.807,7.857,8.579,22.649,17.749,15.783c4.756-3.562,4.528-13.835-2.916-10.021
		c-7.292,3.737-3.95,1.869-12.397,1.869c2.932-0.542,5.417-3.31,8.307-4.219c7.182-2.258,8.258,1.641,13.799,3.547
		c0.519,0.178,1.035,0.344,1.552,0.507V14.823C58.382,9.749,46.124,9.461,40.831,18.114z"/>
</g>
<g id="Layer_3">
	<g>
		<path fill="#414042" d="M24.262,28.858c-0.024,4.982,4.25,8.634,9.021,8.582c9.164-0.102,9.77-13.136,7.747-12.488
			c-0.193-0.072-0.364-0.154-0.521-0.244c0.021-0.081,0.026-0.17-0.015-0.274c-0.378-0.955-0.734-2.076-0.667-3.135
			c0.244-0.698,0.75-1.261,0.766-2.046c2.158-3.534,6.486-7.421,7.934-8.103C46.729,4.328,24.297,21.068,24.262,28.858z"/>
		<path fill="#414042" d="M41.03,24.952C41.53,24.792,40.986,24.936,41.03,24.952L41.03,24.952z"/>
	</g>
	<path fill="#414042" d="M53.012,44.858c-4.798,0.074-9.83,0.045-14.625,0.375c-4.163,0.278-6.594,1.843-10.98,2.627
		c-6.691,1.196-16.652-1.416-21.002-6.816C4.245,38.364,2.215,36.458,0,35.156v12.79c2.119,0.495,4.254,1.12,6.449,1.842
		c14.702,4.836,28.71-2.488,42.864,1.352c6.015,1.887,11.905,1.456,17.609-0.105v-9.42C62.344,43.124,57.713,44.79,53.012,44.858z"
		/>
</g>
<g id="Layer_4">
	<polygon fill="#58595B" points="55.095,68.734 55.095,68.733 55.095,68.735 	"/>
	<path fill="#58595B" d="M55.095,68.734c0,0,0,0.001,0,0.001C55.128,69.004,55.592,72.764,55.095,68.734z"/>
	<path fill="#58595B" d="M55.095,68.733C55.095,68.734,55.095,68.734,55.095,68.733C55.092,68.711,55.093,68.715,55.095,68.733z"/>
	<path fill="#58595B" d="M38.085,66.92h16.25C52.098,64.161,45.373,64.911,38.085,66.92z"/>
	<path fill="#58595B" d="M138.791,45.479C139.088,46.135,137.904,43.521,138.791,45.479L138.791,45.479z"/>
	<path fill="#58595B" d="M50.952,49.141c-5.021-2.445-26.69,0.085-24.809,5.457c0.545,1.555,9.072-0.003,10.821,0.259
		c7.744,1.161,17.61,6.36,25.563,4.217c1.453-0.392,2.923-0.843,4.396-1.321v-6.816C61.637,52.077,56.377,51.783,50.952,49.141z"/>
	<path fill="#58595B" d="M42.619,29.101C42.415,28.566,39.783,30.091,42.619,29.101L42.619,29.101z"/>
	<path fill="#58595B" d="M9.663,21.79c3.001-2.919,9.851-6.472,14.212-7.215C9.663,21.79,3.098,43.43,23.692,41.986
		c5.106-0.358,2.026-1.88,7.191,0.069c3.813,1.44,8.608-1.05,11.786-3.174c9.118-6.095,1.611-5.427-0.05-9.781
		c-4.346,1.517-12.895,12.582-16.959,3.098c-4.818-11.245,15.59-17.464,14.556-21.083c-0.101-0.354-19.772,0.857-22.424,3.721
		C14.802,15.061,4.362,18.053,0,20.909v17.479c0.78-0.062,1.696-0.319,2.786-0.842C3.193,37.351,6.998,24.382,9.663,21.79z"/>
</g>
<g id="Layer_7">
</g>
</svg>
