<?xml version="1.0" encoding="utf-8"?>
<!-- Generator: Adobe Illustrator 16.0.0, SVG Export Plug-In . SVG Version: 6.00 Build 0)  -->
<!DOCTYPE svg PUBLIC "-//W3C//DTD SVG 1.1//EN" "http://www.w3.org/Graphics/SVG/1.1/DTD/svg11.dtd">
<svg version="1.1" xmlns="http://www.w3.org/2000/svg" xmlns:xlink="http://www.w3.org/1999/xlink" x="0px" y="0px" width="300px"
	 height="300px" viewBox="0 0 300 300" enable-background="new 0 0 300 300" xml:space="preserve">
<g id="Layer_6">
	<path fill="#808285" d="M111.398,224.214c-1.136-7.224-7.854-12.43-12.578-17.382c-6.508-6.821-11.907-15.393-15.368-24.153
		c-6.515-16.489-6.903-32.406-1.199-49.175c1.755-5.158,5.103-12.342-1.944-15.188c-4.356-1.759-10.221,0.78-14.593,1.268
		c-1.651-1.811-3.621-6.006-6.195-6.875c-8.204-2.769-12.289,11.074-13.111,16.333c-0.57,3.644-0.833,7.36-0.937,11.044
		c-0.158,5.6-2.018,2.335-3.294,6.87c-2.033,7.222,0.025,15.452-1.323,22.862c-0.89,4.895-0.338,9.693,0.633,14.53
		c0.87,4.33-2.044,7.521-0.739,10.742c4.032,9.937,11.199,12.245,16.192,18.653c3.623,4.648,3.63,11.601,7.233,17.678
		c4.706,7.936,12.289,14.199,21.01,17.232c5.524,1.921,16.97,7.465,21.704,1.599C111.146,244.979,112.431,230.777,111.398,224.214
		C110.147,216.26,112.151,229.003,111.398,224.214z"/>
	<path fill="#808285" d="M201.969,205.048c-9.675,9.312-16.848,22.517-30.83,24.108c-3.667,0.418-10.956-2.722-13.76,0.427
		c-4.823,5.416,2.368,9.039,6.801,9.57c12.854,1.541,26.444-4.652,35.228-13.762c4.395-4.558,7.966-9.863,11.196-15.297
		C222.438,190.19,205.585,199.778,201.969,205.048C194.716,215.618,213.69,193.765,201.969,205.048z"/>
	<path fill="#808285" d="M124.857,74.952c-5.241,0.208-6.984,3.282-12.303,2.274c-4.562-0.864-9.189-1.91-13.865-1.848
		c-13.686,0.179-7.588,9.291-0.222,13.287c-3.369,1.889-6.627,4.332-10.554,4.951c1.131-10.894-11.067-9.635-9.783-2.097
		c1.421,8.346-3.053,21.451,11.99,18.077c8.993-2.017,19.508-5.672,24.442-13.847C115.735,93.808,139.112,74.386,124.857,74.952
		C121.495,75.085,129.431,74.771,124.857,74.952z"/>
	<path fill="#808285" d="M259.698,125.81c-4.929-15.396-8.12-31.256-20.643-42.81c-8.898-8.211-20.063-16.287-31.462-16.683
		c-8.381-0.292-14.78,28.383-11.578,34.492c2.818,5.376,11.557,6.838,15.76,11.339c3.76,4.97,7.324,9.577,10.183,15.179
		c6.543,12.821,10.157,38.764,3.209,51.489c-2.616,4.79-10.681,15.143-8.328,20.982c2.366,5.873,16.596,8.348,21.578,8.785
		c20.022,1.758,22.685-10.421,23.388-29.081C262.51,160.805,265.594,144.217,259.698,125.81
		C258.067,120.716,263.042,136.25,259.698,125.81z"/>
</g>
<g id="Layer_5">
	<path fill="#6D6E71" d="M63.684,207.164c-6.067-8.93-18.28,2.212-15.114,4.478c2.63,1.883,9.377-3.281,9.268,4.002
		C57.667,227.063,67.666,213.023,63.684,207.164C62.356,205.21,65.841,210.339,63.684,207.164z"/>
	<path fill="#6D6E71" d="M121.833,234.667c-3.848-0.44-6.408-5.751-9.432-4.88c-3.432,0.984-14.052,2.195-12.815,7.995
		c-0.352,3.478,6.248,1.821,7.187,4.382c1.922,5.238-6.814,5.165-6.823,7.446c-0.019,4.819,26.054-13.095,22.505-13.501
		C120.348,235.868,122.686,234.765,121.833,234.667z"/>
	<path fill="#6D6E71" d="M134.801,208.215c-3.801-5.686-16.948-0.348-15.819,6.846c0.679,4.328,6.771,2.73,8.602,1.502
		C132.782,213.078,141.78,218.63,134.801,208.215C134.576,207.879,135.616,209.432,134.801,208.215z"/>
	<path fill="#6D6E71" d="M170.692,277.124c3.005-3.243,11.631-11.493,7.593-16.491c-7.049-8.721-13.535-1.201-20.231,1.386
		c-8.816,3.405-8.024,8.161-14.467,1.465c-1.441-9.681,13.842-3.758,15.625-4.411c0.384-0.141,7.964-6.861,9.181-7.997
		c6.612-1.679,5.776-5.324-1.055-4.325c-18.119-4.529-36.933,5.682-54.012,10.051c0.25-0.382-36.47-1.017-36.472-2.018
		c0.007,4.093,17.116,9.552,19.759,8.512c9.95-3.917,24.195-3.041,34.076,1.081c13.069,5.451,17.361,3.997,30.339,2.249
		c8.097-1.091,1.237,9.242-1.916,11.096c-0.987,0.581-11.795,2.016-11.125,3.54c0.324,0.737,10.924,1.154,9.598,1.149
		C166.248,282.437,167.34,280.745,170.692,277.124C173.54,274.051,170.169,277.689,170.692,277.124z"/>
	<path fill="#6D6E71" d="M247.298,231.045c-1.07-2.222-16.454,9.968-20.163,11.247c-6.344,2.188-12.979,2.361-19.437,0.941
		c-3.54-0.938-7.134-1.571-10.781-1.899c-6.196-0.272,3.002,5.563,2.842,5.521C201.052,266.376,253.602,239.435,247.298,231.045
		C247.012,230.451,247.823,231.744,247.298,231.045z"/>
	<path fill="#6D6E71" d="M225.903,216.016c-1.659-6.036-20.01-2.407-23.41-0.56c-4.186,2.273-5.63,6.816-8.495,10.275
		c-3.978,4.803-9.736,7.748-14.838,11.142c-3.448,2.293,12.356,2.423,13.558,2.654c2.902,0.561,27.53,3.721,27.985,0.489
		c0.108-0.771-27.278-15.745-6.536-18.404c3.659-0.469,5.284,7.395,8.009,5.362C224.594,225.171,226.71,218.945,225.903,216.016
		C225.134,213.216,226.597,218.534,225.903,216.016z"/>
	<path fill="#6D6E71" d="M192.993,209.539c-10.116,6.521-20.61-9.273-23.905,1.57c-1.936,6.366-6.338,4.884-6.171-0.608
		c0.146-5.057-8.527-1.243-10.143,0.566c-2.313,2.585-4.96,10.62-2.696,13.517c3.941,5.038,18.478-2.031,22.654-3.478
		c1.172,1.076,10.956-2.615,12.304-4.101c3.4-1.153,6.557-2.779,9.471-4.877C195.901,211.083,194.728,208.42,192.993,209.539
		C189.395,211.858,194.655,208.467,192.993,209.539z"/>
	<path fill="#6D6E71" d="M232.79,64.543c-8.524-7.121-17.635-14.011-28.783-16.86c-4.611-1.179-9.617,1.013-14.475-0.024
		c-6.386-1.363-11.093-3.29-16.812-6.245c7.328-6.322-25.612-7.532-25.601-1.891c0.004,2.035,16.71,1.037,18.562,1.431
		c5.674,1.205,12.34,12.72,18.161,11.048c9.149,3.781,21.448-3.264,31.037,2.41c-10.065,3.034-22.502,0.958-33.357-1.078
		c-3.558-0.667-34.403-13.811-36.541-0.503c-0.594,3.697,14.067-1.935,16.251-1.993c6.037-0.161-0.258,9.72-3.881,10.378
		c-7.106-4.104-9.898-2.961-11.375,2.782c-0.84,0.813-18.861,5.523-13.463,10.49c0.956,0.88,8.943,0.294,10.743-0.526
		c8.341-3.815,21.371-1.113,30.406-4.827c13.126-5.396,24.188-7.435,38.677-7.13c1.866,0.039,10.7,1.322,12.153-0.015
		C225.138,62.432,235.585,66.877,232.79,64.543C231.509,63.473,233.563,65.189,232.79,64.543z"/>
	<path fill="#6D6E71" d="M191.835,72.702c-9.118,8.309-31.239,14.741-42.853,11.186c-4.991-1.664-12.923-5.794-18.315-4.508
		c-13.92,3.321-17.135,15.443-26.96,23.829c-2.027,1.731-8.49,8.557-7.707,11.708c0.658,2.655,26.668-20.175,26.428-20.769
		c6.046-2.919,18.69-8.333,25.483-5.862c8.165,2.498,14.115,4.384,21.888,0.416c5.425-2.769,14.618-4.902,19.818-8.035
		c3.223-1.941,4.515-10.079,1.622-7.443C188.909,75.347,193.261,71.403,191.835,72.702z"/>
</g>
<g id="Layer_2">
	<path d="M121.348,214.689c-14.058-7.4-14.269,18.604-8.528,17.168c1.429,0.545,0.72-7.562,3.494-7.916
		c2.784-0.355,6.346,3.23,8.1-0.938C125.789,219.738,124.448,216.322,121.348,214.689
		C119.727,213.836,123.344,215.742,121.348,214.689z"/>
	<path d="M148.31,202.242c-4.084-5.6-18.474,2.125-12.157,8.797C139.438,214.508,154.299,210.457,148.31,202.242
		C146.436,199.674,149.729,204.188,148.31,202.242z"/>
	<path d="M215.109,196.66c-13.975,3.768-20.796,18.518-35.219,22.424c-8.375,2.268-17.493,4.629-26.148,5.387
		c-3.895,0.342-12.614-4.406-13.48,0.051c-0.646,3.324,17.777,7.641,20.264,7.992c10.399,1.469,19.079-1.371,26.382-8.771
		c1.73-1.754,16.863-17.373,16.496-18.002C204.983,203.994,217.374,196.049,215.109,196.66
		C212.222,197.439,216.356,196.324,215.109,196.66z"/>
	<path d="M238.875,242.25c-5.232-0.02-12.281,6.557-17.643,8.107c-7.939,2.299-14.867,1.518-20.914-4.33
		c-11.224-10.85-27.797-5.533-41.243-4.184c-7.882,0.789-15.633-2.459-23.423-0.521c-8.676,2.158-16.383,7.555-24.899,10.107
		c-1.914,0.572-34.844,0.453-34.279,2.535c0.673,2.479,10.069,2.111,11.691,2.369c11.729,1.873,20.171,2.842,31.71-1.012
		c9.379-3.131,19.058-5.564,28.662-7.898c8.258-2.006,18.669,2.617,25.55-1.797c14.51-9.311,27.608,15.928,43.188,13.338
		c7.318-1.215,12.454-5.557,17.565-10.43C234.522,248.838,242.088,242.262,238.875,242.25
		C237.565,242.244,240.092,242.254,238.875,242.25z"/>
	<path d="M188.206,249.215c-4.799-3.129-23.174,0.479-27.471,3.789c-6.057,4.666-0.88,13.264,1.295,8.5
		c2.836-6.199,16.46-5.666,15.878,2.445c-0.382,5.32-12.88,14.91-12.712,15.977C165.797,283.734,211.239,264.236,188.206,249.215
		C184.951,247.092,195.177,253.762,188.206,249.215z"/>
	<path d="M127.662,274.494c-0.488-0.178-23.63-6.82-23.62-3.422c0.019,6.008,14.771,6.822,18.588,7.83
		C130.21,280.902,139.081,278.654,127.662,274.494C124.586,273.375,128.905,274.947,127.662,274.494z"/>
	<path d="M94.38,210.262c-1.811-1.311-14.549,10.451-14.943,10.973c-1.197,1.143-14.286,13.355-11.902,14.383
		c-0.431,4.312,8.865-5.209,9.048-5.383C78.285,228.605,97.584,212.574,94.38,210.262C94.076,210.041,95.179,210.838,94.38,210.262z
		"/>
	<path d="M79.889,182.582c-0.681-4.467-35.212,11.561-33.667,13.893C47.246,198.018,81.138,185.188,79.889,182.582
		C79.805,182.031,80.009,182.832,79.889,182.582z"/>
	<path d="M76.055,150.183c-3.047-2.153-15.484-1.326-19.255-1.247c-9.248,0.196-10.223-2.43-12.764,4.423
		c-0.554,1.949,19.184,0.479,20.62,0.59c3.316,0.533,6.65,0.773,10.001,0.721C77.357,154.223,78.003,149.067,76.055,150.183
		C75.9,150.074,76.627,149.855,76.055,150.183z"/>
	<path d="M231.738,200.744c-2.412-4.582-10.896-3.561-9.036-2.33C222.132,200.389,232.937,203.021,231.738,200.744z"/>
	<path d="M260.375,168c-8.238-1.054-16.363-3.234-24.393-5.236c-7.518-1.875-5.967,5.328-4.482,5.486
		c8.523,0.902,17.237,4.515,25.75,4.375C259.473,172.592,264.571,168.536,260.375,168C255.185,167.336,261.062,168.088,260.375,168z
		"/>
	<path d="M257.964,130.109c-3.139-8.651-11.578-2.454-18.709-0.266c-7.663,2.351-12.176-0.228-11.969,7.172
		C227.639,139.457,258.481,131.531,257.964,130.109C257.513,128.865,258.141,130.594,257.964,130.109z"/>
	<path d="M238.738,84.37c-6.878-8.292-28.539,23.689-27.099,24.244C213.918,109.989,239.556,85.556,238.738,84.37
		C238.242,83.771,239.012,84.767,238.738,84.37z"/>
	<path d="M251.32,107.2c-2.936-1.354,1.37-9.822-2.791-9.271c-3.688,0.489-6.852,5.226-7.254,8.579
		C239.704,119.57,264.396,113.231,251.32,107.2z"/>
	<path d="M82.735,123.863c-1.51-2.169-8.165-3.934-10.355-5.227c-0.968-0.572-6.779,1.433-4.464,2.882
		C68.891,127.973,87.166,130.23,82.735,123.863C82.038,122.862,83.436,124.87,82.735,123.863z"/>
	<path d="M168.891,92.41c-19.893-7.868-35.991-8.108-53.165,5.938c-3.679,3.009-22.212,18.649-21.886,19.848
		c0.879,3.228,13.613-8.316,14.742-9.239c6.765-5.533,14.864-9.013,22.98-12.043c8.255-3.083,17.443-3.487,26.019-1.598
		C158.909,95.608,173.414,94.2,168.891,92.41C156.818,87.635,169.424,92.621,168.891,92.41z"/>
	<path d="M170.505,107.761c-2.429-1.18-3.604,2.071-6.684,1.238c-4.788-1.295-10.468-1.327-8.173,5.652
		C159.485,126.321,180.626,112.677,170.505,107.761C170.366,107.694,171.942,108.459,170.505,107.761z"/>
	<path d="M206.419,78.717c-1.702-1.799-6.383-1.133-4.054-4.958c0.056-0.09,4.463-4.683,2.15-5.099
		c-5.131-0.923-12.239,5.643-15.786,8.623c-5.614,4.717,0.187,5.462,2.196,9.599c6.674,13.734-14.687,0.879-8.475,13.398
		c4.103,8.269,12.881,3.959,14.763-3.89c0.213-0.886-0.202-10.052,0.927-9.874C201.789,87.093,211.08,83.642,206.419,78.717
		C205.694,77.951,207.599,79.963,206.419,78.717z"/>
	<path d="M131.734,76.66c-16.713,2.852-32.694-7.559-48.87-2.596c-15.323,4.702-21.201,10.987-29.461,23.984
		c0.478,2.208,8.123-8.609,9.071-9.606c5.643-5.934,14.65-8.162,22.445-9.634c10.052-1.898,18.655,2.148,28.529,2.95
		c4.591,0.373,10.548,0.671,14.996-0.779C123.922,82.453,137.183,75.729,131.734,76.66C123.553,78.056,132.684,76.498,131.734,76.66
		z"/>
	<path d="M100.764,49.415c-2.178-1.463-13.618,8.249-5.786,10.826C104.203,63.277,98.208,49.612,100.764,49.415
		C100.543,49.267,101.582,49.352,100.764,49.415z"/>
	<path d="M131.026,67.001c-12.368,4.272-21.015-2.774-14.282-16.673c0.992-2.048,10.614-7.813,10.081-9.727
		c-0.296-1.065-34.788,13.348-17.852,28.432c4.409,3.926,10.949,5.379,16.634,6.102C135.896,76.442,136.208,65.211,131.026,67.001
		C128.477,67.882,134.013,65.97,131.026,67.001z"/>
	<path d="M216.141,53.91c-12.21-4.289-27.203,1.18-39.72-5.216c-6.113-10.838-26.163-15.566-33.352-3.814
		c-4.807,7.857,8.579,22.649,17.749,15.783c4.756-3.562,4.528-13.835-2.916-10.021c-7.292,3.737-3.95,1.869-12.397,1.869
		c2.932-0.542,5.417-3.31,8.307-4.219c7.182-2.258,8.258,1.641,13.799,3.547c9.881,3.399,19.451,3.945,29.741,4.788
		C199.721,56.82,218.866,54.866,216.141,53.91C214.67,53.394,217.197,54.281,216.141,53.91z"/>
	<path d="M201.134,46.627c-3.181-2.781-32.827-11.736-28.114-4.675c2.949,4.418,10.068,5.307,14.855,5.922
		C188.474,47.952,205.213,50.197,201.134,46.627C198.746,44.54,202.416,47.75,201.134,46.627z"/>
</g>
<g id="Layer_3">
	<path fill="#414042" d="M150,279.75c-8.245-0.869-17.898-9.809-25.656-12.963c-4.098-1.666-35.023-2.486-24.389,3.568
		c5.742,3.27,15.763,1.715,22.404,2.732c6.633,1.021,11.183,6.709,17.623,7.83C141.334,281.152,153.768,280.234,150,279.75
		C147.342,279.469,151.252,279.91,150,279.75z"/>
	<path fill="#414042" d="M158.444,261.912c0.329-9.285-13.9-7.73-15.929,0.076C138.749,276.486,157.732,261.154,158.444,261.912
		C158.459,261.5,158.962,262.465,158.444,261.912z"/>
	<path fill="#414042" d="M184.617,233.768c-15.383,5.455-25.428-3.318-40.43-5.871c-8.892-1.514-15.068,4.016-22.072,8.43
		c-1.518,0.957-17.198,12.926-17.323,12.404c1.269,5.301,12.727-2.971,14.546-4.104c10.374-6.461,18.034-13.66,31.102-10.123
		c7.615,2.061,15.281,4.879,23.313,3.922c5.157-0.232,8.605-3.857,10.861-4.658C184.766,233.715,184.887,233.672,184.617,233.768z"
		/>
	<path fill="#414042" d="M77.714,241.609c-1.116-4.65-6.814-5.869-10.45-7.664c-6.944-3.428-0.967-9.807,0.487-13.52
		c2.547-6.512-6.686-1.266-7.405-1.045c-3.326,1.025-1.125-6.211-2.494-7.773c-2.517-2.875-9.313-2.156-10.564,1.768
		c-2.033,6.375,4.521,15.469,8.585,19.771c2.023,2.141,8.814,13.99,12.019,12.906C68.891,245.715,78.166,243.49,77.714,241.609
		C76.641,237.137,77.949,242.588,77.714,241.609z"/>
	<path fill="#414042" d="M97.008,79.968c-5.906-5.156-20.07,0.06-26.856,2.428c-11.493,4.011-18.51,18.908-21.775,29.635
		c-6.188,20.329-13.889,42.578-12.528,64.673c0.417,6.77,0.806,19.152,6.945,20.273c9.354,1.709,0.179-23.872,0.396-31.25
		c0.487-16.564,4.218-28.957,10.787-44.033c0.577-1.326-4.169-17.627,0.88-17.083c0.633,0.068,7.205,9.824,6.104,0.507
		c-1.12-9.483,7.155,1.81,6.838,1.837c-0.553,0.048,1.547-20.667,4.686-6.646c2.23,9.965,9.125,2.151,10.197-2.764
		c2.404-11.018,4.019-0.271,6.904,1.762C98.485,105.58,104.124,86.179,97.008,79.968C95.093,78.297,100.562,83.071,97.008,79.968z"
		/>
	<path fill="#414042" d="M264.136,162.518c-0.317-13.81,0.698-31.086-5.567-43.833c-2.463-0.746,1.113-12,0.721-14.891
		c0.162-4.744-5.724-21.536-10.77-23.771c-0.899-1.682-6.055-5.775-7.824-6.949c-1.776-1.18-12.061,2.714-12.034,2.818
		c1.691,6.651,12.846,6.972,14.004,13.581c-0.921,3.273-7.861,18.314,1.592,11.393c5.558-4.068,4.495,4.133,9.036,7.718
		c3.593,2.839-1.304,8.235,1.416,11.898c2.717,9.796,1.991,20.224,4.577,29.911c0.713,2.663,0.619,28.452,0.56,28.424
		c-1.4,6.479,0.301,20.01-5.178,25.229c-0.192,0.184-0.121,4.828,0.134,5.615c-0.296,0.592-1.317,5.73-2.484,6.918
		c-7.595-11.123-1.824,0.641-7.847,2.66c-2.751,0.922-3.406-8.627-6.603-6.83c0.776-0.438,0.552,15.248-2.323,13.279
		c-3.442-2.355,0.454-9.447-7.569-10.271c-7.078-0.727-2.636,11.945-7.298,11.52c-3.52-0.32-0.067-7.254-6.898-6.676
		c-9.765,0.826-9.966,11.053-3.526,16.518c13.211,11.209,35.468-7.131,42.531-17.564c3.433-1.717,7.046-13.305,6.32-16.303
		C261.375,188.596,264.476,177.519,264.136,162.518C264.057,159.07,264.28,168.892,264.136,162.518z"/>
	<path fill="#414042" d="M208.664,258.086c-11.566-9.879-7.585,0.451-10.635,7.748c-1.544,3.695-9.445,11.875,1.375,8.152
		C203.219,272.674,214.485,263.061,208.664,258.086C207.633,257.205,210.17,259.373,208.664,258.086z"/>
	<path fill="#414042" d="M214.432,259.232c-1.688,0.299-4.753,5.008-3.835,6.656c1.048,1.883,7.647-4.436,7.886-5.131
		C217.854,258.873,216.504,258.365,214.432,259.232C214.415,259.236,216.388,258.967,214.432,259.232z"/>
	<g>
		<path fill="#414042" d="M142.832,46.02c2.158-3.534,6.486-7.421,7.934-8.103c-1.798-6.823-24.23,9.917-24.266,17.708
			c-0.024,4.982,4.25,8.634,9.021,8.582c9.164-0.102,9.77-13.136,7.747-12.488c-0.193-0.072-0.364-0.154-0.521-0.244
			c0.021-0.081,0.026-0.17-0.015-0.274c-0.378-0.955-0.734-2.076-0.667-3.135C142.309,47.368,142.816,46.804,142.832,46.02z"/>
		<path fill="#414042" d="M143.269,51.718C143.768,51.558,143.224,51.702,143.269,51.718L143.269,51.718z"/>
	</g>
	<path fill="#414042" d="M231.104,64.771c-4.781-5.055-17.656-3.506-25.021-4.43c-11.445-1.436-19.925,3.942-30.473,6.194
		c-6.672,1.426-13.44,4.988-20.359,5.089c-4.798,0.074-9.83,0.045-14.625,0.375c-4.163,0.278-6.594,1.843-10.98,2.627
		c-6.691,1.196-16.652-1.416-21.002-6.816c-5.676-7.047-10.456-8.767-20.08-8.137c-5.741,0.376-30.611,21.945-27.379,25.191
		c-0.309-0.31,20.81-9.775,23.47-10.391c8.628-1.997,15.926-0.586,24.034,2.081c14.702,4.836,28.71-2.488,42.864,1.352
		c13.131,4.12,25.675-2.796,36.964-8.44c7.211-4.418,12.273-3.95,20.373-3.32C209.083,66.161,235.479,69.408,231.104,64.771
		C229.979,63.583,231.259,64.936,231.104,64.771z"/>
	<g>
		<path fill="#414042" d="M191.863,86.495C192.019,86.75,192.185,87.024,191.863,86.495c-0.012-0.02-0.018-0.03-0.028-0.047
			c0.009,0.015,0.019,0.03,0.027,0.045c-1.471-2.423-3.652-5.167-4.781-7.114c0.652,1.124-21.311,9.826-23.081,10.995
			c0,2.775,3.684-0.503,3.002,3.959c-0.001,0-0.001,0-0.002,0c-0.952-0.072-2.351-0.037-3.248,0.535
			c-0.032,0.011-0.062,0.024-0.089,0.042c-3.002-0.292-6.981-0.532-7.038,1.215c-0.126,3.796-1.761,16.471-8.716,14.084
			c-4.14-1.421-0.076-6.276-4.17-7.757c-13.343-4.82-7.857,28.262,9.603,15.955c2.583,0.768,3.817-8.441,3.585-8.838
			c2.85-2.441,8.976,2.073,11.048-1.036c4.015-3.364,3.794-3.785,9.456-3.213c1.478,0.149,9.16-1.667,5.099-4.827
			c0.024-0.799-0.518-3.643-0.321-5.486c0.872-0.342,1.763-0.64,2.673-0.843c0.241,0.193,0.498,0.419,0.781,0.695
			c-0.092,0.325,2.673,0.064,4.823-1.24c0.827-0.227,1.561-0.659,1.603-1.373C193.125,90.926,193.419,89.059,191.863,86.495z"/>
		<path fill="#414042" d="M191.772,86.344C191.66,86.161,191.695,86.218,191.772,86.344L191.772,86.344z"/>
		<path fill="#414042" d="M191.835,86.448c-0.021-0.035-0.042-0.069-0.061-0.1C191.79,86.375,191.813,86.413,191.835,86.448z"/>
		<path fill="#414042" d="M191.774,86.349c-0.001-0.001-0.002-0.003-0.002-0.004C191.773,86.346,191.773,86.347,191.774,86.349z"/>
	</g>
</g>
<g id="Layer_4">
	<path fill="#58595B" d="M157.333,95.5c-1.323-10.651-38.024,5.333-40.118,7.885c-7.688,1.369-16.321,15.26-23.108,14.575
		c4.238-4.656,4.782-4.978,6.009-9.764c0.667-2.6,6.349-3.481,6.384-6.113c-0.034,2.762-13.722,2.71-15.392,2.942
		c-10.301,1.434-5.782-6.565-8.287-7.233c-0.493-0.131-4.155,5.671-5.77,6.029c-5.885,1.304-2.58-4.813-5.802-7.988
		c-2.171-3.692-3.659,8.98-3.632,10.318c-0.9-0.794-4.126-5.852-5.701-5.151c-3.393,1.508,0.417,6.5-1.544,7.302
		c-0.736,0.301-11.456-12.135-7.846,5.861c0.54,2.688,11.181,7.052,14.26,6.423c6.261-1.278,12.426,4.075,17.194,2.751
		c-7.421,13.054-10.713,35.639-7.907,50.669c-0.137-1.479-0.163-2.963-0.078-4.449c0.121,5.122,1.202,9.896,3.189,14.416
		c-0.457-0.93-0.884-1.868-1.272-2.821c1.173,4.181,5.755,20.158,9.765,20.94c2.212,2.552,18.349,17.676,18.308,18.332
		c3.796,2.208,4.043,1.358,4.947-2.816c1.025-4.735-7.755-11.305-10.559-14.211c-7.692-7.971-12.113-22.546-14.133-33.186
		c-3.149-16.588,1.522-34.865,9.873-49.167c4.164-1.059,8.678-5.618,14.212-10.309c3.761-3.188,26.329-1.983,27.488,4.713
		c-0.649-3.784-3.458-10.387,1.235-12.612c6.752-2.319,4.348,4.833,7.781,6.843C154.457,114.149,157.966,100.628,157.333,95.5
		C157.291,95.162,157.867,99.83,157.333,95.5z"/>
	<path fill="#58595B" d="M242.982,101.883c0.106-0.368-4.021,2.634-3.363-2.061c0.636-4.503,2.95-13.863-5.762-5.472
		C225.846,102.065,239.14,115.238,242.982,101.883C243.162,101.262,242.963,101.951,242.982,101.883z"/>
	<path fill="#58595B" d="M254.964,205.234c-1.301-1.703-2.13-3.609-6.927-1.86c-2.178-0.084-1.89-3.46-2.742-5.256
		c-1.535-3.244-8.562,0.114-10.049,1.246c-5.315,4.044-10.189-1.547-15.479-1.344c11.21-18.733,11.643-33.878,8.833-55.166
		c-1.374-10.408-6.232-20.486-12.438-28.852c-2.323-3.133-13.758-17.786-18.279-16.977c-4.91,0.879-5.839,6.192-12.633,5.141
		c-4.593-0.707,0.511,1.758-5.23,2.328c-3.179,0.315-11.398,0.341-10.83,3.005c0.395-0.554,5.124,6.003,3.849,5.521
		c6.062,2.292,12.336-5.406,15.846-7.242c7.585-0.95,7.786-1.92,15.101,5.702c14.23,14.83,19.304,37.934,18.709,57.867
		c-0.124,4.136-0.816,13.184-4.274,15.926c-0.691,1.658-8.956,12.374-8.801,12.94c0.153,0.562,3.466-0.661,4.153-0.895
		c0.082,2.855-16.73,15.659-12.648,18.611c4.998,3.613,14.814-5.215,21.633-1.12c2.641,1.587,4.963,0.373,7.782,1.545
		c4.2,1.746,0.665,8.604,5.329,9.751c2.971,0.725,2.825-11.969,2.012-13.58c2.419-1.431,3.384,3.582,3.963,4.76
		c3.763,7.66,6.737-5.341,7.133-4.766C251.75,216.562,255.08,221.609,254.964,205.234
		C254.959,204.534,257.996,209.206,254.964,205.234z"/>
	<path fill="#58595B" d="M159.971,197.588c-6.681,0.352-11.419,3.596-10.889,10.581c-0.734,0.244-4.928,3.076-5.038,3.28
		c-1.073,0.664-2.319,0.661-3.738-0.007c-5.056-1.586-2.411,1.728-5.139,2.475c-12.891-1.846-11.686-0.121-10.075,6.52
		c-2.304,5.501-4.241,4.213-7.972,3.012c-4.265-1.373-5.497,9.439-1.287,11.611c3.43,5.172,23.877-5.006,28.952-7.418
		c-0.338,0.161-4.317-5.758,3.136-3.904c6.787,1.688,1.289-9.114,7.227-13.512c11.415-8.453,1.818,11.565,11.263,6.588
		C176.529,211.481,170.548,197.03,159.971,197.588C157.334,197.727,167.23,197.205,159.971,197.588z"/>
	<path fill="#58595B" d="M164.42,265.868c-2.105-3.594-15.388,1.952-18.176,2.148c-9.966,0.703-18.318-6.998-28.239-7.949
		c-5.295-0.507-38.872,1.92-21.51,9.546c-1.119-0.491,8.713-3.397,9.114-3.404c7.604-0.135,15.198-0.175,22.489,2.424
		c7.379,5.183,14.047,9.95,22.75,11.316C157.562,279.949,169.292,274.184,164.42,265.868
		C162.887,263.251,165.868,268.34,164.42,265.868z"/>
	<path fill="#58595B" d="M254.276,217.896c-11.027,5.071-24.789,25.942-38.753,22.033c-6.769-1.901-42.966-7.145-47.159-1.242
		c-9.737-1.122-18.333-7.375-28.824-6.42c-10.091,3.682-20.958,14.233-30.244,17.495c-6.411,2.252-14.242,0.524-20.678-1.296
		c-3.961-1.12-7.391-4.955-11.619-5.012c-4.287-0.058-11.885,1.467-7.036,6.519c5.835,6.081,17.414,3.243,25.224,1.926
		c5.523,1.115,15.812,0.423,20.939-2.217c8.541-4.409,17.472-6.592,27.144-7.219c2.968-0.191,21.834,1.621,22.999-1.468
		c7.95,0.017,15.514-2.205,23.429-0.132c8.975,2.353,20.107,6.62,29.405,4.021c9.528-2.662,16.791-4.872,25.371-10.685
		c5.988-4.057,6.683-10.583,10.456-15.823C255.279,217.914,254.249,217.908,254.276,217.896z"/>
	<path fill="#58595B" d="M67.482,209.228c-4.979-0.453-4.97,9.916-6.732,9.897c11.409,0.119,3.104-0.013,4.165,7.221
		c0.121,6.193,9.461-2.291,10.229-3.834C78.146,216.481,74.047,209.822,67.482,209.228
		C65.947,209.088,72.767,209.706,67.482,209.228z"/>
	<path fill="#58595B" d="M50.042,203.878c-0.71-2.438-9.496-10.684-11.705-10.082c-2.627,0.715,8.46,23.188,8.538,24.204
		C46.459,212.597,51.632,209.34,50.042,203.878C49.454,201.859,50.647,205.958,50.042,203.878z"/>
	<path fill="#58595B" d="M213.5,258.875c-11.449-0.053-6.242,7.362-6.242,10.357C212.537,268.248,211.432,258.919,213.5,258.875
		C213.336,258.879,214.001,258.877,213.5,258.875z"/>
	<path fill="#58595B" d="M224.992,256.518c-0.103,0.021-12.229,3.775-6.472,5.784C220.566,263.016,225.094,256.497,224.992,256.518
		C222.847,256.961,225.433,256.427,224.992,256.518z"/>
	<path fill="#58595B" d="M200.979,253.896c-6.408-5.377-16.009-12.502-24.619-9.61c-3.724,1.245-7.769,4.991-2.156,4.44
		c7.94-0.778,20.973-0.31,20.146,11.835c-2.628,7.835-23.446,18.774-29.765,20.819c7.169-0.616,21.494-2.828,28.156-6.043
		C195.462,274.026,202.392,256.155,200.979,253.896C199.584,251.667,201.298,254.165,200.979,253.896z"/>
	<path fill="#58595B" d="M241.029,72.246c-4.565-10.081-12.611-4.974-20.373-5.329c-11.04-0.504-21.771-3.986-32.078,2.054
		c-12.348,7.236-23.47,12.741-35.388,6.936c-5.021-2.445-26.69,0.085-24.809,5.457c0.545,1.555,9.072-0.003,10.821,0.259
		c7.744,1.161,17.61,6.36,25.563,4.217c8.276-2.23,17.037-5.938,24.453-10.136c10.585-5.992,20.918-7.594,32.672-2.896
		c1.986,0.794,6.231,5.57,7.806,3.365C230.991,74.362,241.908,74.185,241.029,72.246C240.143,70.288,241.326,72.901,241.029,72.246z
		"/>
	<path fill="#58595B" d="M92.37,53.637c-0.19,0.123-13.659,7.395-11.837,10.019c-0.24-0.345,12.681-3.964,12.754-4.146
		C93.535,58.89,93.773,52.729,92.37,53.637C90.726,54.7,93.346,53.005,92.37,53.637z"/>
	<path fill="#58595B" d="M144.857,55.867c-4.346,1.517-12.895,12.582-16.959,3.098c-4.818-11.245,15.59-17.464,14.556-21.083
		c-0.101-0.354-19.772,0.857-22.424,3.721c-3.642,0.272-18.348,4.653-19.644,7.892c-1.183,2.138-5.648,19.754,4.637,14.817
		c0.407-0.195,4.212-13.164,6.877-15.756c3.001-2.919,9.851-6.472,14.212-7.215c-14.212,7.215-20.777,28.855-0.183,27.412
		c5.106-0.358,2.026-1.88,7.191,0.069c3.813,1.44,8.608-1.05,11.786-3.174C154.025,59.553,146.519,60.221,144.857,55.867
		C144.653,55.333,142.021,56.857,144.857,55.867z"/>
</g>
</svg>
